<svg width="1080" height="1080" xml:space="preserve" xmlns="http://www.w3.org/2000/svg"><path style="fill:#000;stroke:#000;stroke-width:1.7088" d="M370.81 840.58c-53.025-6.25-101.18-25.952-138.971-56.86-18.08-14.788-45.046-43.548-56.326-60.074l-9.892-14.492 26.778-.472 26.778-.472 6.126 7.307c18.134 21.63 48.638 45.984 73.029 58.305 32.825 16.58 68.677 24.245 106.654 22.8 65.225-2.48 114.95-25.391 160.295-73.857l13.533-14.466h52.06l-4.715 8.117c-18.792 32.358-63.792 73.748-103.265 94.981-36.273 19.512-71.212 28.243-117.053 29.25-15.977.35-31.741.32-35.03-.068z"/><path style="fill:#000;stroke:#000;stroke-width:1.7088" d="M398.902 772.726c-.804-2.095 1.8-8.469 15.851-38.795 3.266-7.049 7.102-15.7 8.524-19.224l2.586-6.408h23.738c13.056 0 23.738.424 23.738.942 0 3.52-25.062 58.312-27.307 59.7-1.51.933-38.69 6.001-44.025 6.001-1.24 0-2.637-.997-3.105-2.216zM875.612 848.788l-15.53-.488-3.925-8.91a2467.04 2467.04 0 0 0-8.82-19.71c-2.694-5.94-4.897-11.071-4.897-11.403 0-.332-3.928-8.93-8.728-19.105-4.8-10.176-9.707-21.193-10.903-24.482-1.196-3.29-4.122-10.21-6.503-15.38-13.942-30.27-16.586-36.422-16.586-38.6 0-1.957 4.363-2.41 23.163-2.41h23.163l4.334 9.825a1728.012 1728.012 0 0 0 8.648 19.224c4.409 9.607 12.171 27.024 24.562 55.109 3.835 8.693 9.242 20.718 12.015 26.721 9.135 19.777 12.248 27.625 11.323 28.55-1.25 1.25-12.793 1.64-31.316 1.059zM128.748 555.788c3.905-67.72 29.804-125.474 78.017-173.979 41.059-41.306 83.928-65.041 137.559-76.162 22.156-4.594 85.817-4.601 106.8-.012 22.501 4.921 47.765 13.74 67.026 23.4 19.442 9.749 40.629 23.182 40.629 25.76 0 2.884-13.886 34.703-16.2 37.12-1.84 1.923-4.324.866-14.901-6.341-46.663-31.8-95.457-44.678-150.658-39.761-30.54 2.72-52.005 8.704-78.408 21.858-23.028 11.473-39.816 23.802-59.384 43.613-39.924 40.421-59.668 83.349-65.283 141.941l-2.088 21.787H127.64z"/><path style="fill:#000;stroke:#000;stroke-width:.143149" d="M508.934 521.242c.039-.098 1.825-4.108 3.97-8.911a10845.57 10845.57 0 0 0 8.661-19.468 2453.14 2453.14 0 0 1 5.02-11.273c.232-.486.31-.537.82-.537.552 0 .56-.008.494-.463-.052-.356.025-.579.333-.966.584-.734 2.18-3.952 2.565-5.176.44-1.393.735-1.967 1.427-2.766.317-.366.614-.839.66-1.051.356-1.614.643-2.365 1.777-4.662.831-1.684 1.32-2.855 1.383-3.307.076-.559.273-.934.975-1.855 1.136-1.494 1.053-1.321 1.222-2.519.173-1.213.493-1.997 1.3-3.18.322-.47.677-1.117.79-1.436.112-.32.265-.653.339-.742.073-.09.365-.876.646-1.749.43-1.33.624-1.714 1.2-2.372.609-.696.713-.915.918-1.937.208-1.04.59-1.933 1.663-3.897.62-1.134 1.305-2.734 1.45-3.385.087-.394.472-1.18.886-1.813.504-.769.906-1.64 1.289-2.791.31-.935.897-2.273 1.33-3.033.89-1.566 1.418-2.72 1.573-3.436.178-.82.76-2.012 1.386-2.842.449-.595.631-1.005.77-1.73.1-.524.38-1.344.623-1.822.243-.479.442-.92.442-.982 0-.062.163-.326.363-.588.432-.567 1.086-2.086 1.641-3.816.277-.86.601-1.515 1.026-2.069.853-1.113.81-1.02 1.061-2.351.176-.936.512-1.793 1.559-3.984.733-1.535 1.47-3.255 1.637-3.822.223-.756.496-1.27 1.022-1.926.396-.492.746-1.027.78-1.188.032-.161.125-.624.204-1.028.153-.776.732-2.027 2.074-4.482.57-1.043.874-1.79 1.002-2.47.147-.775.3-1.114.75-1.654.994-1.194 1.175-1.537 1.346-2.55.144-.852 1.226-3.389 1.706-3.999.227-.287 1.11-2.452 1.277-3.13.236-.956.956-2.34 1.454-2.795.32-.293.463-.617.638-1.449.218-1.032.922-2.59 1.793-3.963.488-.77 1.284-2.629 1.286-3.003.002-.437.64-1.646 1.337-2.537.391-.5.695-1.056.744-1.36.045-.283.213-.87.374-1.302.16-.433.392-1.078.514-1.432.122-.354.38-.858.574-1.12.623-.843 1.57-2.797 1.677-3.46.14-.866.516-1.7 1.037-2.298.612-.703.9-1.326 1.054-2.287.097-.603.442-1.414 1.227-2.887.6-1.126 1.215-2.185 1.366-2.352.174-.193.345-.742.469-1.503.194-1.197.41-1.663 1.565-3.38.224-.335.522-1.075.66-1.647.274-1.12 1.15-3.296 1.48-3.671.112-.127.332-.489.49-.804.16-.315.457-.89.662-1.277.204-.387.372-.87.373-1.073.002-.723.299-1.383 1.002-2.227.415-.498.808-1.156.94-1.575a28.87 28.87 0 0 1 .518-1.47l.292-.752h81.815l.247.377c.136.208.432.945.657 1.639.224.694.93 2.302 1.566 3.573.795 1.588 1.27 2.743 1.516 3.692.305 1.176.482 1.552 1.19 2.528.712.983.845 1.268.936 2 .105.857.905 2.682 1.57 3.583.57.774 1.214 2.355 1.436 3.527.203 1.071.274 1.212 1.008 2.023.508.562.842 1.08.937 1.455.56 2.208 1.094 3.535 1.798 4.474.188.25.342.497.342.548 0 .051.197.542.438 1.091.24.549.507 1.397.591 1.885.183 1.062.404 1.536 1.111 2.39.676.816.787 1.038 1.008 2.004.099.433.397 1.245.663 1.805.266.559.483 1.075.483 1.147 0 .072.17.38.375.683.724 1.065 1.47 2.741 1.611 3.623.161.999.285 1.283.736 1.69.414.374.942 1.432 1.37 2.74.297.91.983 2.388 1.685 3.63.642 1.134 1.138 2.339 1.323 3.214.15.712.352 1.179.706 1.634.274.351.497.69.497.755 0 .065.19.426.42.802.256.414.48 1.044.57 1.599.08.503.293 1.146.473 1.43.18.282.763 1.384 1.296 2.447.709 1.412 1.038 2.262 1.225 3.158.227 1.09.335 1.32.97 2.085.787.945.922 1.233 1.26 2.69.126.546.32 1.093.431 1.217.382.425 2.347 4.522 2.444 5.094.159.937.353 1.452.65 1.722.516.466 1.279 2.029 1.497 3.065.152.723.488 1.52 1.146 2.716.512.93.931 1.749.931 1.818 0 .07.226.573.501 1.12.276.546.5 1.132.5 1.3 0 .17.113.625.25 1.011.236.662.255 3.602.323 50.34l.072 49.637H713.925l-.076-.838c-.065-.712-.177-.973-.75-1.753-.825-1.12-1.148-1.744-1.282-2.482-.056-.31-.29-.837-.52-1.171-.242-.351-.502-1.004-.615-1.547-.116-.55-.353-1.143-.573-1.432-.206-.27-.375-.532-.375-.582 0-.049-.192-.328-.427-.62-.34-.423-.458-.76-.584-1.67-.176-1.263-.256-1.463-.913-2.292-.869-1.095-1.097-1.5-1.31-2.317-.118-.453-.308-.927-.422-1.052-.114-.126-.338-.611-.498-1.078a10.04 10.04 0 0 0-.771-1.636c-.875-1.433-1.229-2.27-1.364-3.222-.136-.961-.22-1.138-1.24-2.621-.4-.58-.641-1.128-.757-1.714-.108-.549-.32-1.052-.587-1.387a2.587 2.587 0 0 1-.512-1.195c-.098-.695-.453-1.423-1.324-2.713-.38-.564-.536-.975-.612-1.613-.097-.825-.41-1.479-1.644-3.444-.179-.283-.37-.831-.426-1.217-.055-.385-.184-.905-.286-1.154-.101-.25-.147-.491-.101-.537.046-.046-.014-.083-.133-.083-.211 0-.547-.557-.547-.907 0-.19-.122-.43-1.251-2.47-.602-1.087-.737-1.468-.823-2.326-.095-.95-.156-1.091-.818-1.92-.859-1.074-.935-1.21-1.211-2.158a7.405 7.405 0 0 0-.571-1.355 7.249 7.249 0 0 1-.558-1.297c-.112-.375-.365-.835-.563-1.02-.199-.187-.36-.435-.36-.551 0-.117-.225-.613-.498-1.102-.339-.605-.527-1.159-.588-1.731-.062-.58-.213-1.02-.485-1.415-.218-.315-.542-.86-.72-1.212a10.398 10.398 0 0 0-.578-1.002c-.14-.2-.294-.7-.344-1.114-.05-.414-.218-.97-.375-1.235-.157-.266-.44-.876-.628-1.357-.188-.48-.486-1.076-.663-1.324-.71-.998-1.381-2.542-1.479-3.403-.082-.731-.192-.984-.7-1.608-.33-.407-.71-.88-.844-1.052-.134-.17-.342-.78-.461-1.356-.128-.612-.362-1.234-.566-1.5a3.448 3.448 0 0 1-.491-.977c-.08-.286-.336-.766-.57-1.066-.235-.3-.47-.727-.52-.948-.051-.22-.275-.652-.497-.958-.317-.438-.424-.78-.5-1.6-.076-.818-.17-1.119-.439-1.403-.301-.319-.605-.82-1.314-2.165-.108-.204-.256-.69-.33-1.08-.15-.793-.687-1.957-2.461-5.347-.402-.768-.587-1.325-.65-1.956-.079-.805-.157-.968-.902-1.88-.92-1.125-1.094-1.498-1.204-2.575-.043-.416-.204-.936-.36-1.154-.155-.218-.393-.683-.529-1.033-.135-.35-.358-.764-.494-.922-.137-.157-.452-.702-.702-1.211-.25-.51-.512-.996-.583-1.081-.07-.086-.167-.442-.214-.793a83.54 83.54 0 0 0-.153-1.086c-.037-.248-.291-.73-.564-1.074-.273-.343-.497-.68-.497-.75-.001-.07-.147-.36-.324-.644-.177-.285-.523-1.098-.768-1.807-.663-1.913-1.085-2.939-1.502-3.654-.686-1.174-1.397-2.922-1.496-3.677-.085-.644-.216-.88-.95-1.718-.96-1.095-1.117-1.403-1.117-2.18 0-.775-.294-1.512-1.19-2.984-.432-.708-.831-1.432-.887-1.61-.057-.177-.286-.61-.509-.963-.3-.472-.432-.904-.505-1.64-.08-.811-.184-1.113-.547-1.594-.726-.958-1.052-1.594-1.375-2.676-.166-.56-.75-1.905-1.295-2.988-.546-1.083-.995-2.028-.997-2.1-.002-.071-.196-.515-.43-.985-.233-.47-.427-1.05-.43-1.288-.012-.74-.352-1.447-1.127-2.338-.691-.794-.762-.945-.95-2.025-.134-.765-.322-1.324-.546-1.624a4.072 4.072 0 0 1-.514-.993c-.094-.295-.239-.577-.321-.628-.083-.051-.34-.512-.573-1.024-.232-.512-.56-1.117-.727-1.344-.214-.289-.336-.735-.408-1.485-.081-.848-.179-1.162-.469-1.507-.54-.641-1.455-2.531-1.712-3.536-.2-.783-1.21-2.904-1.75-3.672-.111-.16-.202-.389-.202-.509s-.19-.62-.422-1.11a9.142 9.142 0 0 1-.595-1.771c-.149-.759-.298-1.028-1.07-1.937-.493-.58-.93-1.232-.972-1.449a33.296 33.296 0 0 1-.163-.966c-.048-.315-.358-1.088-.688-1.718-.544-1.04-.672-1.182-1.387-1.55-.433-.222-.92-.528-1.083-.68-.6-.56-.884-.215-1.02 1.241-.06.648-.194 1.099-.428 1.444-.187.276-.528.898-.757 1.383a19.652 19.652 0 0 1-.63 1.24c-.118.197-.31.551-.425.787a53.87 53.87 0 0 1-.582 1.134c-.216.41-.371.938-.371 1.262 0 .669-.153.98-.896 1.827-.74.845-.88 1.14-1.179 2.505-.177.808-.583 1.81-1.381 3.403-.622 1.242-1.285 2.733-1.475 3.314-.413 1.265-1.134 2.707-1.662 3.324-.26.303-.437.74-.543 1.34-.086.491-.279 1.1-.428 1.352-.15.253-.352.713-.45 1.021-.098.309-.369.863-.6 1.232-.233.369-.484.892-.559 1.164-.075.27-.328.735-.564 1.03-.264.333-.428.709-.43.984-.006.783-.243 1.512-.663 2.037-1.056 1.32-1.308 1.776-1.459 2.633-.11.621-.55 1.66-1.509 3.56-.744 1.474-1.458 3.083-1.586 3.575-.23.888-1.195 3.02-1.56 3.448-.106.123-.303.573-.439 1-.222.698-.866 2.053-1.638 3.446-.515.93-1.439 3.073-1.602 3.718-.219.864-.933 2.27-1.42 2.795-.33.356-.415.607-.495 1.466-.08.851-.185 1.167-.59 1.768-.27.403-.492.824-.492.936 0 .112-.225.531-.501.932-.276.4-.501.828-.501.95s-.198.53-.44.906c-.302.473-.48.983-.575 1.651-.075.532-.248 1.1-.383 1.261-.135.162-.513.59-.84.952-.465.514-.633.843-.764 1.503-.318 1.592-.448 1.926-1.65 4.267-.748 1.458-1.288 2.708-1.427 3.306-.236 1.019-1.028 2.605-1.625 3.253-.256.279-.393.643-.48 1.278-.067.488-.242 1.085-.39 1.328-.147.242-.57 1.052-.94 1.8-.369.748-.887 1.784-1.152 2.304-.308.606-.517 1.263-.582 1.837-.085.758-.19 1.003-.69 1.614-1.05 1.285-1.235 1.624-1.399 2.557-.101.574-.404 1.374-.809 2.136-1.116 2.103-1.454 2.788-1.455 2.954-.001.09-.106.248-.232.352-.31.258-.468.711-.62 1.79-.117.82-.211 1.005-.988 1.927-.754.896-.888 1.149-1.092 2.069-.325 1.46-1.227 3.597-2.005 4.752a8.616 8.616 0 0 0-1.028 2.19c-.436 1.429-.74 2.068-1.516 3.178-.468.672-.59.99-.683 1.79-.118 1.018-.937 2.852-1.748 3.915-.57.747-1.095 1.982-1.337 3.142-.238 1.143-.477 1.586-1.086 2.02-.538.383-.919 1.159-1.024 2.086-.082.73-.867 2.479-1.111 2.479-.069 0-.092.084-.053.187.04.103-.189.685-.507 1.294-.486.926-.554 1.155-.42 1.406.091.17.137.714.107 1.258-.052.912-.19 1.234-2.822 6.586-1.522 3.094-3.332 6.858-4.022 8.363-.69 1.505-1.783 3.895-2.43 5.313-.648 1.417-1.526 3.334-1.952 4.26-.426.925-.775 1.712-.775 1.749 0 .036-.55 1.234-1.221 2.661-.672 1.428-1.371 2.96-1.553 3.404-.183.445-.77 1.727-1.306 2.849l-.973 2.04h-25.26c-20.15 0-25.245-.036-25.19-.18zm50.815-40.869a56.295 56.295 0 0 0-2.935 0c-.807.026-.146.047 1.468.047 1.614 0 2.274-.021 1.467-.047zm-31.815.273v-.309l14.637.031c8.05.018 13.768.047 12.705.066-10.227.183-19.167.35-22.868.427l-4.474.094zM509.42 520.31c1.012-2.212 14.359-32.203 16.76-37.66.359-.814.723-1.503.81-1.532.24-.08 21.519-.484 33.714-.642 5.937-.076 10.828-.172 10.867-.211.04-.04-9.77-.072-21.799-.072h-21.87l.354-.465c.195-.256.56-.852.81-1.324.252-.473.546-1.02.654-1.217.387-.702 1.19-2.657 1.294-3.15.164-.775.702-1.74 1.335-2.392.456-.47.594-.736.666-1.283.133-1.014.734-2.62 1.383-3.696.313-.52.664-1.213.78-1.541.115-.329.37-.869.563-1.2.209-.356.354-.828.354-1.15 0-.625.288-1.15 1.293-2.357.751-.902.761-.929.974-2.485.136-.99.644-2.075 1.465-3.125.175-.224.41-.675.523-1.002.112-.328.322-.79.465-1.026.143-.236.397-.935.564-1.552.385-1.417.592-1.814 1.305-2.499.514-.494.593-.667.775-1.685.21-1.177.936-2.92 1.573-3.776.202-.27.367-.579.367-.685 0-.105.258-.678.573-1.272.315-.595.573-1.239.573-1.431 0-.524.3-1.146 1.171-2.424.551-.808.812-1.344.874-1.794.106-.775 1-2.958 1.475-3.603.188-.256.44-.69.56-.966.119-.276.369-.791.555-1.145.186-.355.42-.999.52-1.432.228-.996.828-2.2 1.489-2.992.282-.337.513-.656.514-.708.007-.6.36-2.016.582-2.326.155-.218.376-.665.492-.992.115-.327.366-.78.557-1.008.191-.227.427-.656.523-.953.097-.297.326-.83.509-1.185.182-.354.407-.998.498-1.431.205-.972.57-1.712 1.19-2.404.652-.73.747-.949.933-2.158.15-.97.608-2.186 1.304-3.454.833-1.521 1.577-3.188 1.785-4 .305-1.186.638-1.821 1.277-2.436.529-.507.797-1.166.798-1.96 0-.248.194-.818.43-1.267.237-.449.43-.9.43-1 0-.102.23-.52.511-.928.282-.41.596-.982.698-1.272a5.7 5.7 0 0 1 .555-1.07c.202-.3.407-.845.455-1.214.15-1.166.191-1.253 1.07-2.301.472-.564.888-1.17.924-1.345.036-.175.133-.736.216-1.248.082-.511.267-1.09.41-1.288.144-.197.375-.648.515-1.003.14-.354.311-.713.382-.798.44-.532 1.46-2.83 1.581-3.557.16-.962.985-2.558 1.496-2.893.362-.237.564-.76.686-1.77.08-.651.875-2.337 1.724-3.65.564-.872 1.179-2.293 1.314-3.033.143-.79.684-1.793 1.401-2.6.533-.6.642-.83.73-1.541.058-.46.292-1.206.52-1.659.228-.452.415-.95.415-1.107 0-.157.191-.504.425-.77.234-.266.553-.783.71-1.147.156-.365.413-.842.571-1.06.159-.218.35-.792.426-1.276.153-.979.537-1.836 1.017-2.27.537-.485.965-1.393 1.057-2.243.064-.59.285-1.18.804-2.147.393-.735.942-1.77 1.219-2.302.276-.531.56-.966.629-.966.194 0 .31-.406.437-1.535.085-.759.225-1.202.526-1.667.226-.35.52-.818.655-1.042.135-.225.378-.57.54-.768.17-.209.356-.748.442-1.288.082-.511.273-1.14.424-1.397.151-.257.376-.816.5-1.24.123-.426.329-.86.456-.964.127-.105.358-.477.513-.826.155-.35.457-.878.671-1.174.278-.383.416-.788.48-1.41.108-1.023.235-1.3.962-2.097.656-.718.925-1.22 1.15-2.142.095-.386.293-.943.44-1.238l.269-.537H677.623l.363.68c.2.374.407.937.46 1.252.09.532.73 2.042 1.367 3.221.943 1.747 1.594 3.296 1.738 4.135.19 1.111.447 1.628 1.415 2.852.655.828.714.966.714 1.667 0 .639.12.998.727 2.174.4.776.85 1.525 1 1.665.15.14.316.43.368.645.051.214.245.653.431.975.208.36.403 1.043.506 1.772.095.673.255 1.255.37 1.346 1.011.801 1.478 1.509 1.7 2.572.296 1.42.97 3.07 1.554 3.801.276.346.502.719.502.83 0 .11.188.567.418 1.017.248.483.485 1.256.58 1.89.173 1.156.294 1.402 1.241 2.518.507.597.657.915.839 1.777.121.577.404 1.377.629 1.777.224.4.453.922.508 1.158.055.236.254.591.442.79.188.197.438.63.555.962a6 6 0 0 0 .578 1.14c.22.324.366.739.366 1.042.001.799.282 1.601.7 1.998.577.55 1.109 1.555 1.37 2.59.24.95 1.407 3.455 1.737 3.729.102.084.293.486.425.894.133.407.36.871.506 1.032.164.18.326.71.428 1.39.14.944.232 1.17.648 1.599.266.274.484.584.484.69 0 .104.225.54.5.968.324.502.504.957.508 1.283.008.605.31 1.503.62 1.847.124.136.321.52.438.852.117.332.37.812.56 1.066.19.255.395.624.453.821.059.197.255.616.437.93.183.318.428 1.139.55 1.844.214 1.233.244 1.296 1 2.089.788.826.855.976 1.22 2.737.091.44.261.923.378 1.074.503.649 2.497 4.683 2.497 5.053 0 .753.33 1.601.734 1.889.226.161.412.373.412.47 0 .097.2.494.447.882.324.512.48.977.572 1.702.087.696.242 1.173.513 1.578.5.748 1.76 3.204 1.76 3.43 0 .094.157.386.35.646.222.301.385.769.446 1.28.054.444.202 1.032.33 1.308.214.46.24 4.655.306 50.066l.071 49.566h-4.509v-.908c0-.737-.056-.96-.296-1.176-.624-.565-1.566-2.175-1.655-2.83-.085-.616-.19-.837-.814-1.714-.143-.2-.315-.756-.383-1.234-.09-.644-.236-1.007-.563-1.403-.242-.294-.44-.592-.44-.662 0-.07-.187-.34-.414-.599-.327-.372-.434-.663-.509-1.379-.154-1.475-.194-1.576-1.077-2.681-.885-1.108-1.072-1.467-1.213-2.323-.047-.285-.215-.667-.373-.85-.157-.181-.387-.689-.51-1.127-.123-.438-.4-1.055-.615-1.37-.963-1.408-1.409-2.434-1.514-3.487-.098-.974-.154-1.1-.937-2.138-.782-1.036-.895-1.297-1.206-2.782-.045-.215-.265-.602-.488-.86-.294-.337-.43-.68-.494-1.234-.058-.499-.216-.934-.451-1.243-.2-.262-.363-.534-.363-.605 0-.071-.233-.428-.517-.793-.445-.572-.528-.799-.595-1.634-.062-.778-.157-1.07-.478-1.471a5.178 5.178 0 0 1-.612-1.002 5.769 5.769 0 0 0-.58-.994c-.227-.306-.37-.687-.374-1.002-.003-.28-.099-.767-.212-1.082a15.758 15.758 0 0 1-.209-.599c0-.014.175-.053.392-.086.328-.05.307-.063-.126-.08-.624-.027-.747-.165-.973-1.096-.095-.394-.327-.878-.516-1.076-.188-.197-.433-.618-.545-.933a5.97 5.97 0 0 0-.578-1.127c-.3-.444-.376-.723-.376-1.402 0-.966-.106-1.219-.895-2.118-.696-.794-.93-1.237-1.198-2.266-.115-.44-.369-1.01-.564-1.267-.196-.256-.41-.756-.476-1.11a1.85 1.85 0 0 0-.57-1.065c-.266-.25-.448-.562-.448-.77 0-.193-.207-.634-.461-.98-.385-.526-.476-.803-.55-1.673-.077-.915-.144-1.1-.536-1.506-.247-.254-.527-.687-.622-.96-.095-.275-.355-.75-.577-1.058-.303-.42-.403-.721-.403-1.219 0-.478-.104-.815-.378-1.216-.207-.306-.491-.934-.631-1.397-.14-.462-.454-1.067-.697-1.343-.243-.277-.441-.585-.441-.685 0-.1-.2-.497-.444-.881-.343-.542-.466-.932-.542-1.727-.092-.97-.136-1.068-.792-1.797-.978-1.087-1.05-1.224-1.227-2.335-.118-.74-.26-1.107-.562-1.45-.222-.253-.45-.708-.507-1.01-.06-.319-.308-.778-.591-1.091-.273-.302-.489-.694-.489-.887 0-.19-.151-.529-.336-.751-.552-.664-.666-.986-.666-1.89 0-.797-.041-.908-.572-1.521-.315-.364-.574-.738-.576-.832 0-.094-.19-.447-.42-.786a3.227 3.227 0 0 1-.518-1.432c-.06-.48-.24-1.02-.438-1.312-.185-.274-.442-.814-.57-1.2a8.766 8.766 0 0 0-.646-1.4l-.843-1.426c-.371-.626-.696-1.912-.71-2.81-.002-.097-.388-.601-.858-1.12-.888-.98-1.147-1.561-1.149-2.578a1.73 1.73 0 0 0-.354-1.06c-.195-.263-.458-.791-.584-1.173-.127-.381-.353-.779-.503-.884-.15-.105-.373-.476-.496-.823a5.846 5.846 0 0 0-.581-1.15c-.27-.39-.38-.78-.446-1.558-.075-.895-.145-1.097-.51-1.471a3.641 3.641 0 0 1-.638-.946 4.4 4.4 0 0 0-.477-.846c-.144-.183-.336-.691-.427-1.129-.09-.437-.384-1.253-.652-1.812-.268-.56-.488-1.115-.489-1.236 0-.12-.13-.412-.29-.648-.919-1.366-1.846-3.776-1.855-4.82 0-.053-.411-.543-.913-1.09l-.912-.993-.102-1.097c-.107-1.14-.281-1.53-1.57-3.533-.281-.438-.512-.895-.512-1.016s-.208-.503-.462-.85c-.397-.54-.474-.787-.547-1.742-.076-.98-.138-1.168-.518-1.575-.634-.678-1.297-1.963-1.413-2.738-.086-.572-1.521-3.66-1.943-4.181-.071-.087-.218-.453-.326-.813-.108-.36-.327-.837-.486-1.06-.16-.225-.333-.728-.385-1.12-.18-1.355-.244-1.5-1.086-2.429-.888-.98-.924-1.063-1.062-2.434-.067-.677-.172-.95-.493-1.289-.223-.237-.448-.662-.497-.945-.05-.282-.253-.665-.45-.85-.197-.185-.454-.66-.57-1.054-.118-.394-.39-.9-.604-1.124-.343-.358-.397-.542-.443-1.51-.046-.98-.097-1.15-.46-1.532a3.87 3.87 0 0 1-.64-.983 8.341 8.341 0 0 0-.564-1.074c-.184-.286-.401-.913-.482-1.392a4.604 4.604 0 0 0-.587-1.567c-.242-.382-.442-.763-.444-.846-.002-.083-.227-.502-.501-.931-.274-.43-.497-.907-.497-1.061 0-.155-.165-.561-.366-.904-.2-.343-.459-1.114-.574-1.714-.198-1.038-.253-1.14-1.119-2.057-.875-.928-.914-1.001-1.009-1.884-.054-.505-.19-1.077-.301-1.27a25 25 0 0 1-.655-1.311c-.42-.894-.5-.977-1.126-1.185-.37-.123-.857-.415-1.081-.65-.224-.233-.49-.425-.592-.425-.341 0-.59.637-.658 1.69-.059.887-.128 1.108-.451 1.446-.21.219-.45.645-.534.948-.083.302-.37.875-.638 1.273-.268.398-.487.832-.487.964 0 .133-.218.527-.483.875-.408.534-.492.776-.542 1.561-.056.876-.101.978-.788 1.776-.933 1.086-1.064 1.35-1.278 2.57-.156.892-.58 1.909-1.672 4.003-.758 1.456-1.12 2.304-1.325 3.103-.128.498-.421 1.201-.651 1.562-.23.361-.419.731-.419.822 0 .091-.192.337-.427.546a1.597 1.597 0 0 0-.51.896c-.187 1.167-.388 1.87-.58 2.03-.112.093-.303.51-.424.926-.12.417-.405.99-.63 1.275-.227.284-.454.766-.505 1.072-.052.305-.225.673-.384.818-.479.432-.691.992-.691 1.817 0 .754-.033.82-.93 1.875-.944 1.112-.992 1.212-1.146 2.396-.048.373-.376 1.234-.736 1.933-.358.693-1.002 1.937-1.432 2.764-.445.856-.817 1.78-.865 2.147-.047.354-.301 1.056-.566 1.56-.264.504-.48 1.001-.48 1.105 0 .103-.185.4-.41.658-.225.259-.455.723-.512 1.032-.105.571-1.179 2.84-1.679 3.548-.15.214-.396.741-.544 1.173-.148.431-.398.965-.555 1.186-.157.221-.354.738-.438 1.149-.19.937-1.083 2.711-1.615 3.212-.367.346-.403.468-.403 1.382 0 .936-.033 1.042-.501 1.602-.276.33-.501.746-.501.924 0 .178-.225.607-.5.953-.274.346-.5.766-.5.934-.001.169-.23.638-.509 1.043-.411.599-.524.917-.596 1.694-.082.88-.141 1.014-.74 1.677-.36.396-.766.851-.904 1.011-.146.17-.314.731-.4 1.336-.174 1.227-.792 2.663-2.195 5.101-.402.697-.633 1.322-.762 2.052-.124.706-.327 1.266-.619 1.707-.239.36-.434.73-.434.818 0 .09-.226.38-.502.648-.354.343-.502.614-.504.923-.006.729-.284 1.708-.573 2.016-.15.16-.373.575-.496.924a7.622 7.622 0 0 1-.65 1.297c-.233.364-.425.757-.425.873 0 .115-.203.528-.452.917-.308.483-.47.936-.509 1.424-.094 1.18-.15 1.305-1.071 2.372-.85.985-.892 1.071-1.068 2.176-.121.76-.28 1.253-.47 1.455-.156.167-.38.574-.497.905-.117.33-.376.842-.577 1.137-.2.295-.468.849-.595 1.23-.126.382-.317.728-.423.769-.243.093-.443.737-.566 1.816-.085.756-.169.918-.856 1.666-.947 1.03-1.012 1.154-1.217 2.296-.091.51-.387 1.418-.656 2.018-.27.6-.49 1.16-.49 1.244 0 .083-.285.567-.633 1.075-.846 1.236-1.02 1.595-1.3 2.67-.287 1.11-.966 2.47-1.578 3.164-.401.454-.462.64-.537 1.627-.065.863-.153 1.187-.39 1.438-.167.179-.398.637-.513 1.018-.115.381-.393.888-.619 1.127-.677.715-1.46 2.4-1.585 3.418-.14 1.13-.25 1.333-1.14 2.133-.744.67-.998 1.274-1.007 2.397-.003.313-.166.744-.433 1.146-.235.354-.428.724-.429.823 0 .098-.177.188-.394.198-.337.017-.348.029-.071.082.414.08.405.238-.045.828-.201.264-.43.71-.507.992-.078.282-.205.512-.282.512-.077 0-.034.205.096.456.174.338.216.682.16 1.324-.062.728-.264 1.238-1.252 3.159-1.242 2.415-3.983 8.081-5.54 11.452-1.877 4.065-4.099 8.932-4.999 10.95-.509 1.142-1.058 2.334-1.22 2.649-.163.315-.84 1.79-1.506 3.277a222.753 222.753 0 0 1-1.92 4.187l-.712 1.483h-50.36Zm66.256-38.256c-.824-.86-3.083-1.386-6.729-1.567l-2.147-.107 2.446-.022c1.346-.012 3.713-.064 5.261-.116 2.043-.069 2.815-.05 2.815.066 0 .089-.188.375-.418.636-.229.262-.462.715-.517 1.007-.054.293-.144.532-.2.532-.055 0-.285-.193-.511-.429zm-88.666 91.808c0-.668 5.513-13.563 12.251-28.655a35995.17 35995.17 0 0 0 20.224-45.383l7.974-17.942 24.204-.474c24.711-.484 26.024-.132 22.526 6.05-.924 1.632-4.304 8.735-7.511 15.784a7419.332 7419.332 0 0 1-11.992 26.184c-3.387 7.352-6.159 13.62-6.159 13.928 0 .308-3.084 7.172-6.852 15.254-6.124 13.132-7.35 14.704-11.535 14.783-2.575.049-13.333.448-23.906.888-10.573.44-19.224.252-19.224-.417zm41.279-94.072c.2-.215.516-.743.7-1.174.184-.43.458-.885.608-1.01.15-.124.326-.474.392-.778.065-.303.304-.87.53-1.259.227-.389.49-1.123.587-1.63.167-.881 1.166-2.434 1.566-2.434.193 0 .515-1.132.516-1.816 0-.553 1.22-3.207 1.63-3.547.137-.114.34-.587.451-1.051.112-.465.353-.98.536-1.146.22-.2.333-.531.333-.98 0-.841.173-1.175 1.264-2.442.83-.963.87-1.057.955-2.25.072-1.007.183-1.374.583-1.927.272-.375.495-.774.495-.886 0-.112.194-.386.431-.61.237-.222.48-.666.54-.985.06-.32.26-.773.444-1.007.185-.235.442-.936.572-1.558.27-1.285.763-2.185 1.478-2.694.43-.307.505-.497.612-1.564.077-.762.24-1.365.441-1.619.175-.223.374-.633.442-.912s.346-.763.618-1.077c.272-.313.495-.752.495-.974 0-.222.223-.684.496-1.027.351-.443.528-.904.609-1.589.096-.817.259-1.155 1.066-2.206.783-1.022.952-1.363.952-1.926 0-.717 1.306-3.686 1.803-4.098.141-.117.306-.438.367-.714a2.78 2.78 0 0 1 .453-.936c.188-.24.416-.887.506-1.437.09-.55.32-1.214.512-1.474s.35-.558.35-.662c0-.104.264-.439.587-.744.517-.489.599-.687.68-1.656.063-.766.196-1.214.437-1.475.19-.205.434-.704.542-1.108.107-.404.345-.816.53-.914.184-.099.42-.51.525-.914.104-.404.339-.942.52-1.196.182-.254.407-.936.5-1.516.162-1.009.59-1.756 1.612-2.816.286-.298.363-.598.574-2.263.057-.445.217-.904.356-1.02.14-.116.374-.623.52-1.128.147-.504.377-1.008.512-1.12.442-.366 1.478-2.686 1.637-3.667a4.364 4.364 0 0 1 1.472-2.61c.396-.34.489-.588.572-1.532.073-.828.208-1.256.508-1.616.224-.27.408-.677.408-.905 0-.228.227-.647.505-.93.277-.285.559-.775.626-1.091.066-.316.27-.738.454-.937.387-.423.67-1.31.67-2.1 0-.424.198-.771.825-1.45 1.08-1.17 1.108-1.227 1.264-2.646.087-.799.224-1.267.397-1.364.145-.081.391-.531.547-1 .156-.47.392-.944.525-1.055.133-.11.334-.478.446-.817.112-.34.389-.89.616-1.225a2.35 2.35 0 0 0 .412-1.34c0-.472.14-.943.392-1.321.216-.323.488-.803.604-1.065.116-.263.286-.477.376-.477.362 0 .71-.58.711-1.184.001-.782.308-1.94.514-1.94.083 0 .286-.37.45-.824.165-.453.427-.941.582-1.084.49-.451 1.577-2.856 1.577-3.489 0-.67.881-2.185 1.598-2.75.35-.275.453-.542.529-1.383.062-.687.22-1.201.46-1.508.202-.256.415-.771.475-1.145.071-.443.251-.773.517-.947.235-.154.49-.573.6-.986.106-.395.34-.857.52-1.027.344-.323.433-.607.565-1.812.077-.705.464-1.371 1.278-2.2.51-.52.745-1.18.745-2.097 0-.54.117-.897.409-1.247a4.12 4.12 0 0 0 .62-1.138c.116-.357.292-.699.391-.76.1-.061.366-.53.592-1.044.227-.512.484-.932.571-.932.252 0 .54-1.018.54-1.909 0-.63.099-.923.434-1.284.238-.258.434-.589.434-.737 0-.147.249-.5.553-.785.47-.438.574-.69.69-1.66.089-.732.257-1.273.47-1.505.183-.198.385-.684.449-1.077.07-.426.28-.86.521-1.069.223-.193.46-.613.528-.932.068-.319.316-.737.55-.93.35-.285.446-.554.523-1.474.063-.746.203-1.243.414-1.472 1.294-1.411 1.522-1.779 1.701-2.747.103-.554.338-1.199.523-1.434.185-.235.387-.73.45-1.098.062-.368.298-.844.525-1.057.227-.214.464-.632.526-.93.062-.298.266-.663.453-.811.364-.288.656-1.269.662-2.229.002-.352.146-.736.357-.954 1.267-1.314 1.73-2.193 1.73-3.289 0-.273.184-.715.409-.983.225-.267.46-.806.523-1.198.062-.392.275-.874.472-1.071.197-.197.441-.606.542-.909.101-.302.345-.728.542-.945.244-.27.394-.748.473-1.509.087-.841.227-1.246.572-1.657.252-.298.457-.691.457-.873 0-.18.192-.455.425-.608.234-.153.52-.563.634-.91.115-.348.392-.777.616-.953.224-.176.407-.427.407-.558 0-.35.137-.397 2.016-.702 1.428-.232 3.12-.273 10.13-.245 8.492.033 25.684.032 38.386-.001 4.332-.012 7.169.05 7.634.165 1.376.342 2.041.58 2.041.732 0 .084.265.308.589.5.443.26.634.53.775 1.091.103.41.339.937.523 1.172.185.234.423.752.53 1.15.108.398.265.767.35.82.085.052.481.7.881 1.438.534.987.752 1.614.822 2.365.086.935.181 1.126 1.109 2.234.928 1.108 1.015 1.282 1.015 2.044 0 .628.103.956.419 1.332.23.274.476.807.545 1.184.07.377.35.943.622 1.256.273.314.496.72.496.902 0 .183.195.543.433.8.367.396.434.636.434 1.557 0 1.35.088 1.583.715 1.908.275.142.5.361.5.487s.149.364.331.529c.206.186.408.738.533 1.458.11.641.343 1.314.52 1.506.176.19.405.666.508 1.057.104.39.34.847.526 1.015.186.168.387.53.447.803s.305.785.544 1.137c.3.443.473 1 .559 1.8.127 1.19.245 1.414 1.54 2.937.49.574.565.79.565 1.625 0 .75.089 1.073.4 1.454.22.27.495.814.609 1.209.12.416.39.837.64 1.002.262.171.433.447.433.7 0 .229.183.637.408.906.298.359.44.805.525 1.66.143 1.432.223 1.652.646 1.786.183.058.446.325.585.593.139.268.361.53.495.58.152.059.288.502.364 1.192.132 1.183 1.135 3.538 1.667 3.915.166.117.351.48.413.806.06.327.277.806.48 1.064.256.325.403.83.477 1.637.114 1.242.292 1.604 1.327 2.7.562.595.675.853.795 1.81.102.81.254 1.236.559 1.56.23.246.472.774.537 1.173.078.48.253.815.517.988.234.154.447.516.515.878.064.34.307.824.542 1.077.332.358.426.647.426 1.313 0 .955.209 1.453.808 1.924.223.176.406.407.406.513 0 .106.152.354.337.551.199.212.409.812.515 1.47.104.65.317 1.26.514 1.474.185.2.417.663.516 1.029.099.366.38.85.624 1.076.244.226.444.575.444.775 0 .434.44 1.332.693 1.417.099.032.229.589.29 1.236.095 1.02.172 1.222.582 1.513.26.185.516.556.57.823.053.268.297.703.542.968.342.368.446.663.446 1.264 0 .822.18 1.29.717 1.867.178.19.324.517.324.724 0 .207.234.672.52 1.032.287.36.521.785.521.945 0 .159.185.54.412.847.299.406.445.9.535 1.812.107 1.099.19 1.32.672 1.79 1.13 1.103 1.28 1.359 1.408 2.397.133 1.068.4 1.839.638 1.839.076 0 .224.316.328.703.104.387.373.863.598 1.058.225.196.461.637.526.981.064.344.306.85.537 1.124.28.334.419.714.419 1.153 0 .904.311 1.713.708 1.839.183.058.383.315.446.57.062.257.296.687.52.957.265.319.408.714.408 1.129 0 .898.277 1.76.69 2.144.193.18.35.428.35.551 0 .123.228.57.506.991.277.422.592 1.096.699 1.499.107.402.323.804.48.892.201.112.326.526.418 1.385.123 1.154.185 1.29 1.069 2.332.838.988.95 1.213 1.042 2.111.065.63.228 1.143.437 1.375.184.203.424.64.535.971.112.332.385.8.61 1.041.223.242.452.743.508 1.115.057.371.269.852.472 1.068.26.278.397.705.466 1.463.082.912.168 1.124.579 1.428.265.196.528.539.584.762.056.224.296.693.534 1.043.29.428.431.874.431 1.366 0 .524.146.946.518 1.494.284.42.518.885.52 1.033.002.149.2.537.44.863.241.327.522.908.624 1.292.102.384.329.855.505 1.046.18.195.375.765.446 1.301.122.926.428 1.468 1.566 2.776.257.296.417.782.5 1.526.086.764.244 1.237.527 1.574.222.264.459.71.525.99s.305.707.53.95c.226.243.48.814.565 1.27.086.458.318.98.522 1.17.232.216.367.554.367.92 0 1.065.206 1.686.623 1.876.22.1.48.41.577.687.097.278.335.707.529.954.24.304.353.707.353 1.25 0 .441.137 1.041.304 1.337.628 1.112 1.007 1.696 1.292 1.997.162.171.381.647.488 1.058.106.41.361.98.566 1.266.22.305.422.932.491 1.517.086.725.253 1.163.614 1.604 1.486 1.82 1.45 1.755 1.45 2.647 0 .935.284 1.954.544 1.954.09 0 .306.332.481.737.175.406.483.885.685 1.065.201.18.414.585.473.9.06.316.295.828.524 1.138.23.31.417.804.417 1.096 0 .788.292 1.664.644 1.931.261.199-3.504.236-24.018.241-22.997.005-24.337-.011-24.488-.298-.088-.167-.215-.639-.283-1.048-.082-.496-.257-.831-.523-1.006-.23-.15-.447-.515-.512-.86-.061-.33-.304-.805-.538-1.058-.357-.386-.426-.634-.426-1.536 0-.97-.055-1.136-.564-1.696-1.064-1.17-1.364-1.682-1.503-2.56-.092-.582-.295-1.042-.598-1.358-.323-.338-.458-.664-.458-1.108 0-.501-.106-.705-.52-1-.377-.268-.521-.512-.521-.881 0-.33-.184-.702-.52-1.055-.466-.487-.521-.66-.521-1.635 0-1.004-.04-1.118-.501-1.447a1.536 1.536 0 0 1-.61-.938 2.126 2.126 0 0 0-.54-.987c-.342-.32-.431-.576-.431-1.229 0-.627-.105-.948-.436-1.342-.24-.285-.505-.887-.59-1.337-.098-.53-.306-.949-.586-1.187-.239-.202-.486-.597-.55-.877-.064-.28-.307-.735-.539-1.01-.343-.408-.422-.695-.422-1.523 0-1.003-.016-1.036-.964-2.006-.916-.94-.968-1.04-1.065-2.083-.086-.919-.183-1.168-.599-1.539-.363-.323-.496-.6-.496-1.036 0-.462-.115-.676-.52-.965-.376-.268-.52-.512-.52-.88 0-.33-.184-.703-.521-1.055-.466-.488-.52-.66-.52-1.642 0-1.009-.041-1.127-.503-1.469-.277-.204-.546-.587-.6-.851-.052-.264-.204-.59-.337-.722-.434-.435-.643-.98-.643-1.684 0-.482-.13-.846-.427-1.2-.235-.279-.501-.839-.592-1.244-.091-.405-.327-.909-.524-1.118-.197-.21-.449-.652-.56-.982-.11-.33-.362-.778-.559-.995-.265-.293-.378-.7-.433-1.56-.072-1.137-.095-1.186-.983-2.073-.925-.926-1.127-1.399-1.127-2.643 0-.452-.122-.757-.413-1.03-.229-.215-.461-.685-.52-1.05-.069-.433-.251-.758-.524-.937-.274-.18-.459-.51-.534-.956-.065-.383-.3-.856-.537-1.078-.36-.339-.422-.556-.422-1.489 0-1.009-.039-1.121-.512-1.471-.282-.209-.563-.61-.625-.89a2.092 2.092 0 0 0-.475-.875c-.229-.228-.41-.71-.49-1.3-.072-.527-.314-1.212-.555-1.57-.236-.35-.477-.919-.538-1.265-.06-.346-.296-.83-.523-1.077-.228-.246-.47-.704-.536-1.019-.066-.314-.284-.75-.484-.967-.252-.274-.399-.737-.478-1.51-.11-1.06-.162-1.161-1.093-2.115-.975-.998-.978-1.004-.978-2.077 0-.887-.074-1.164-.422-1.578-.233-.276-.477-.731-.544-1.011-.066-.28-.345-.72-.618-.977-.297-.279-.498-.646-.498-.912 0-.258-.219-.674-.52-.99-.473-.495-.521-.651-.521-1.713 0-1.055-.042-1.197-.433-1.453-.238-.156-.553-.572-.7-.925-.148-.352-.357-.696-.465-.763-.109-.066-.254-.602-.323-1.19-.084-.712-.246-1.198-.485-1.451-.197-.21-.468-.694-.603-1.075a7.224 7.224 0 0 0-.7-1.364c-.25-.369-.455-.85-.455-1.067 0-.218-.195-.628-.434-.912-.307-.365-.439-.736-.451-1.271-.026-1.146-.167-1.45-1.132-2.443-.867-.893-.89-.945-.964-2.108-.066-1.051-.13-1.232-.542-1.532-.33-.24-.468-.496-.468-.864 0-.35-.162-.675-.491-.983a2.068 2.068 0 0 1-.603-1.153c-.074-.457-.262-.803-.55-1.013-.395-.287-.438-.436-.438-1.507 0-1.11-.033-1.211-.498-1.543-.297-.211-.543-.58-.61-.916-.062-.31-.298-.76-.524-1.002-.303-.324-.43-.698-.487-1.42-.057-.738-.19-1.115-.54-1.531-.255-.304-.464-.691-.464-.862 0-.17-.234-.604-.52-.965-.298-.373-.521-.862-.521-1.138 0-.266-.19-.709-.422-.984-.306-.364-.453-.806-.54-1.618-.114-1.074-.156-1.154-1.086-2.041-.94-.897-.97-.955-1.041-1.996-.052-.768-.174-1.182-.43-1.462-.197-.214-.481-.76-.632-1.214-.253-.761-.332-.839-1.032-1.007-.486-.118-.88-.351-1.099-.651-.708-.973-1.352-.352-1.352 1.304 0 1.021-.045 1.167-.433 1.421-.292.191-.468.506-.542.971-.066.411-.31.898-.609 1.21-.288.302-.499.713-.499.975 0 .279-.2.639-.52.938-.463.433-.52.598-.52 1.495 0 .847-.07 1.078-.44 1.448-1.237 1.24-1.485 1.69-1.618 2.94-.079.735-.245 1.342-.42 1.536-.16.176-.411.665-.56 1.087-.15.422-.416.926-.593 1.12-.178.193-.376.601-.44.907a2.97 2.97 0 0 1-.485 1.023c-.206.261-.423.876-.494 1.397-.083.613-.279 1.11-.575 1.462-.246.294-.448.678-.448.855 0 .178-.224.481-.496.675-.428.305-.51.5-.593 1.417-.068.75-.204 1.178-.465 1.455-.203.216-.415.697-.472 1.068a2.021 2.021 0 0 1-.6 1.143c-.355.334-.497.634-.497 1.046 0 .426-.138.7-.521 1.035-.467.41-.52.562-.52 1.471 0 .996-.018 1.033-.983 2.045-.952.998-.987 1.07-1.09 2.204-.08.87-.207 1.278-.49 1.58-.21.223-.43.65-.49.949-.06.299-.295.718-.521.93-.227.213-.462.668-.522 1.01a2.5 2.5 0 0 1-.534 1.077c-.311.334-.448.723-.521 1.475-.07.727-.213 1.145-.497 1.454-.219.239-.451.723-.516 1.077-.073.398-.276.745-.534.914-.297.195-.416.434-.417.833 0 .308-.15.833-.334 1.167a37.716 37.716 0 0 0-.761 1.496c-.235.489-.513.942-.618 1.007-.105.064-.311.533-.459 1.041-.148.509-.417 1.06-.6 1.224-.205.186-.374.65-.446 1.228-.07.56-.28 1.152-.53 1.49-.229.31-.416.699-.416.864 0 .166-.234.469-.52.672-.487.347-.52.443-.52 1.503 0 1.04-.043 1.168-.521 1.588-.37.324-.52.614-.52.997 0 .381-.154.676-.521 1.004-.357.317-.52.625-.52.977 0 .336-.18.696-.521 1.045-.456.467-.52.656-.52 1.53 0 .98-.018 1.015-.98 1.984-.96.967-.982 1.012-1.09 2.195-.073.792-.217 1.325-.42 1.55-.171.189-.423.717-.561 1.174-.138.458-.397.992-.575 1.188a2.401 2.401 0 0 0-.452.79c-.07.238-.284.605-.475.814-.235.258-.386.743-.464 1.493-.088.85-.226 1.243-.586 1.671-.259.308-.47.707-.47.888 0 .18-.235.502-.521.713-.433.32-.52.506-.52 1.107 0 .876-.286 1.755-.61 1.88-.132.05-.33.425-.44.833-.11.408-.387.964-.616 1.237-.23.272-.417.673-.417.891 0 .219-.234.692-.52 1.052-.44.554-.52.807-.52 1.637 0 .957-.026 1.009-.984 2.014-.955 1.002-.987 1.067-1.093 2.22-.086.94-.188 1.248-.488 1.476-.208.158-.43.56-.491.895-.063.334-.292.802-.51 1.04-.217.24-.484.77-.593 1.18-.109.411-.305.788-.437.839-.328.126-.61 1.006-.61 1.905 0 .498-.106.851-.32 1.058-1.372 1.333-1.66 1.81-1.777 2.947-.076.726-.246 1.301-.481 1.619-.2.27-.435.808-.522 1.193-.086.386-.342.933-.567 1.216-.888 1.114-1.4 2.134-1.52 3.03-.073.53-.289 1.132-.506 1.408-.209.266-.38.592-.38.725 0 .134-.273.516-.607.85-.565.566-.607.683-.607 1.7 0 .925-.063 1.15-.413 1.48-.233.217-.461.685-.522 1.065-.07.431-.239.747-.466.869-.196.105-.513.517-.703.916-.19.4-.498.999-.683 1.333-.205.37-.337.944-.338 1.474-.002.777-.076.945-.707 1.605-.388.406-.77.738-.849.738-.234 0-.524 1.034-.524 1.866 0 .572-.113.907-.434 1.289-.239.283-.434.665-.434.849 0 .328-.445.334-24.755.334h-24.755Zm209.949 94.637c-.315-.036-.644-.29-.998-.771-.446-.607-.527-.875-.527-1.734 0-.897-.06-1.072-.5-1.484-.276-.257-.56-.663-.632-.901-.072-.239-.315-.655-.54-.925-.294-.35-.41-.705-.41-1.246 0-.93-.255-1.636-.703-1.95-.186-.13-.338-.344-.338-.475 0-.132-.235-.406-.52-.61-.48-.341-.521-.452-.521-1.415 0-.944-.05-1.09-.52-1.502-.405-.355-.521-.602-.521-1.107 0-.521-.104-.726-.521-1.035-.37-.274-.52-.53-.52-.888 0-.343-.167-.65-.521-.96-.485-.426-.52-.54-.52-1.664 0-1.107-.054-1.286-.651-2.173-.358-.532-.827-1.14-1.041-1.35-.272-.266-.39-.586-.39-1.054 0-.49-.116-.78-.429-1.074-.323-.303-.456-.656-.545-1.439-.095-.84-.211-1.12-.613-1.479-.273-.242-.496-.62-.496-.837 0-.218-.184-.595-.408-.837-.312-.337-.434-.719-.516-1.614-.086-.945-.189-1.244-.526-1.538-.23-.201-.477-.553-.55-.781-.07-.229-.304-.625-.518-.88-.213-.256-.443-.828-.509-1.27-.08-.533-.263-.93-.542-1.172-.293-.254-.421-.548-.421-.96 0-.608-.456-1.773-.693-1.773-.073 0-.232-.24-.354-.534-.122-.294-.404-.654-.628-.8-.364-.24-.407-.398-.408-1.505 0-.857-.093-1.404-.303-1.777-.664-1.178-1.13-1.804-1.343-1.804-.277 0-.436-.386-.436-1.063 0-.565-.404-1.472-.7-1.57-.102-.034-.248-.517-.323-1.072-.104-.766-.244-1.1-.58-1.385-.243-.206-.49-.587-.549-.845-.058-.258-.3-.68-.538-.936-.368-.397-.433-.634-.433-1.585 0-1.025-.043-1.156-.52-1.575-.286-.25-.52-.553-.52-.671s-.198-.397-.439-.62c-.327-.305-.462-.644-.537-1.352-.077-.741-.203-1.04-.58-1.38-.395-.355-.497-.616-.563-1.444-.065-.81-.172-1.094-.543-1.438-.254-.236-.462-.537-.462-.67 0-.131-.195-.393-.434-.581-.374-.294-.45-.531-.549-1.69-.112-1.333-.123-1.358-1.127-2.523-.75-.872-1.013-1.313-1.013-1.7 0-.554-.32-1.405-.527-1.405-.167 0-.474-.803-.614-1.61-.062-.36-.26-.756-.437-.88-.178-.125-.451-.532-.607-.905-.155-.372-.43-.864-.61-1.094-.236-.299-.328-.699-.328-1.417 0-.869-.075-1.096-.564-1.71-1.316-1.656-1.37-1.755-1.467-2.7-.078-.754-.2-1.037-.595-1.39-.405-.36-.497-.584-.497-1.209 0-.564-.115-.902-.434-1.281-.239-.284-.434-.6-.434-.701 0-.103-.234-.453-.52-.78-.449-.51-.52-.73-.52-1.584 0-.879-.06-1.047-.522-1.479-.287-.268-.57-.723-.627-1.012-.058-.288-.291-.7-.52-.914-.304-.286-.414-.576-.415-1.096 0-.39-.103-.903-.227-1.141l-.227-.434h21.265c11.696 0 22.592-.027 24.214-.06 2.721-.054 2.96-.034 3.116.26.092.177.32.548.504.826.211.316.384.984.462 1.789.103 1.05.21 1.371.582 1.76.25.262.456.563.456.67 0 .107.192.423.427.702.235.28.48.84.546 1.244.064.405.29.943.502 1.197.25.3.415.782.471 1.38.063.665.208 1.049.525 1.388.241.258.562.713.712 1.012.15.299.382.584.514.635.16.061.276.517.346 1.354.087 1.038.182 1.332.532 1.657.234.217.476.622.537.9.06.279.297.681.524.894.228.215.464.693.528 1.072.064.377.303.887.533 1.134.32.345.416.644.416 1.281 0 1.049.23 1.66.676 1.802.191.06.4.282.463.492.064.21.273.553.465.763.252.276.386.751.479 1.705.113 1.157.197 1.392.672 1.882.298.308.542.649.542.758 0 .11.154.307.342.439.21.146.42.607.54 1.18.108.518.348 1.106.532 1.307.184.2.399.775.478 1.276.103.65.271 1.019.584 1.284.243.204.527.647.632.985.105.337.346.746.537.909.28.24.346.512.346 1.433 0 .966.062 1.2.412 1.55.226.226.501.668.61.982.11.314.365.747.568.963.212.226.429.772.51 1.29.08.51.299 1.065.502 1.282.207.22.422.776.506 1.306.11.689.258 1.005.588 1.245.244.177.492.545.551.816.06.272.3.753.533 1.07.324.439.425.792.425 1.49 0 .769.083 1.009.52 1.507.287.326.521.676.521.778 0 .102.192.392.426.644.251.272.473.777.542 1.236.064.427.297.992.518 1.255.248.293.449.827.523 1.382.075.568.235.985.43 1.122.171.12.443.548.605.953.162.404.441.813.62.91.214.114.328.366.33.732.009 1.034.312 1.927.768 2.259.244.178.443.423.443.545 0 .123.16.426.356.675.196.25.482.826.637 1.282.154.455.416 1.024.583 1.262.166.239.35.792.41 1.23.084.612.229.885.623 1.177.283.209.514.523.514.698 0 .174.223.598.495.94.399.502.517.864.61 1.862.134 1.437.19 1.567 1.141 2.602.392.425.797 1.086.9 1.468.104.381.376 1.133.604 1.67.228.537.415 1.224.415 1.528 0 .385.151.693.501 1.02.276.256.555.714.618 1.016.064.302.268.724.453.938.199.229.336.643.336 1.013 0 .885.273 1.727.7 2.16.661.668 1.22 1.693 1.419 2.602.107.49.341 1.057.52 1.257.178.201.387.763.463 1.25.134.843 1.177 2.693 1.713 3.035a.52.52 0 0 1 .217.39c0 .2-.299.253-1.432.257-.787.002-7.326.046-14.53.096-17.796.125-31.914.17-32.483.105z"/></svg>